<svg width="32" height="32" viewBox="0 0 32 32" fill="none" xmlns="http://www.w3.org/2000/svg">
<path d="M25.3333 14.6667H9.51998L14.36 8.85338C14.5863 8.58109 14.6952 8.23005 14.6627 7.87748C14.6302 7.52491 14.4589 7.19969 14.1866 6.97338C13.9144 6.74706 13.5633 6.63817 13.2107 6.67068C12.8582 6.70319 12.533 6.87442 12.3066 7.14671L5.63998 15.1467C5.59513 15.2103 5.55502 15.2772 5.51998 15.3467C5.51998 15.4134 5.51998 15.4534 5.42665 15.52C5.36621 15.6729 5.33457 15.8357 5.33331 16C5.33457 16.1644 5.36621 16.3272 5.42665 16.48C5.42665 16.5467 5.42665 16.5867 5.51998 16.6534C5.55502 16.7229 5.59513 16.7897 5.63998 16.8534L12.3066 24.8534C12.432 25.0039 12.589 25.1249 12.7664 25.2079C12.9439 25.2908 13.1374 25.3337 13.3333 25.3334C13.6448 25.334 13.9468 25.2255 14.1866 25.0267C14.3217 24.9148 14.4333 24.7773 14.5151 24.6222C14.5969 24.467 14.6473 24.2973 14.6634 24.1227C14.6795 23.948 14.661 23.7719 14.6089 23.6045C14.5568 23.437 14.4722 23.2814 14.36 23.1467L9.51998 17.3334H25.3333C25.6869 17.3334 26.0261 17.1929 26.2761 16.9429C26.5262 16.6928 26.6666 16.3537 26.6666 16C26.6666 15.6464 26.5262 15.3073 26.2761 15.0572C26.0261 14.8072 25.6869 14.6667 25.3333 14.6667Z" fill="black"/>
</svg>
