<svg width="32" height="32" viewBox="0 0 32 32" fill="none" xmlns="http://www.w3.org/2000/svg">
<path d="M11.52 6.97338C11.3853 6.86111 11.2297 6.77652 11.0623 6.72446C10.8948 6.6724 10.7187 6.65389 10.5441 6.67C10.3694 6.6861 10.1997 6.73649 10.0446 6.81829C9.88943 6.9001 9.75196 7.0117 9.64003 7.14671L2.97336 15.1467C2.77725 15.3853 2.67004 15.6845 2.67004 15.9934C2.67004 16.3022 2.77725 16.6015 2.97336 16.84L9.41336 24.84C9.53885 24.9947 9.69741 25.1194 9.87738 25.2047C10.0574 25.2901 10.2542 25.3341 10.4534 25.3334C10.7057 25.3342 10.9531 25.2635 11.1668 25.1293C11.3805 24.9952 11.5517 24.8032 11.6606 24.5756C11.7695 24.348 11.8116 24.0942 11.782 23.8436C11.7524 23.593 11.6523 23.356 11.4934 23.16L5.72003 16L11.6934 8.85338C11.8056 8.71865 11.8902 8.56309 11.9423 8.39562C11.9943 8.22815 12.0128 8.05205 11.9967 7.87742C11.9806 7.70278 11.9302 7.53304 11.8484 7.37791C11.7666 7.22278 11.655 7.08531 11.52 6.97338ZM29.04 15.16L22.6667 7.16005C22.5567 7.02308 22.4207 6.9092 22.2665 6.82497C22.1123 6.74074 21.943 6.68781 21.7683 6.66922C21.5936 6.65064 21.4169 6.66676 21.2485 6.71667C21.08 6.76658 20.9231 6.84929 20.7867 6.96005C20.6497 7.07008 20.5359 7.20609 20.4516 7.36027C20.3674 7.51446 20.3145 7.68376 20.2959 7.85847C20.2773 8.03317 20.2934 8.20983 20.3433 8.37828C20.3932 8.54673 20.4759 8.70366 20.5867 8.84005L26.28 16L20.3067 23.16C20.1944 23.2948 20.1098 23.4503 20.0578 23.6178C20.0057 23.7853 19.9872 23.9614 20.0033 24.136C20.0194 24.3106 20.0698 24.4804 20.1516 24.6355C20.2334 24.7906 20.345 24.9281 20.48 25.04C20.7217 25.234 21.0235 25.3377 21.3334 25.3334C21.5292 25.3337 21.7228 25.2909 21.9002 25.2079C22.0777 25.1249 22.2347 25.0039 22.36 24.8534L29.0267 16.8534C29.2247 16.6163 29.3343 16.3179 29.3367 16.0091C29.3391 15.7003 29.2343 15.4002 29.04 15.16Z" fill="#1D1D1B"/>
</svg>
