<svg width="14" height="16" viewBox="0 0 14 16" fill="none" xmlns="http://www.w3.org/2000/svg">
<path d="M11.5 2H10.75V1.25C10.75 1.05109 10.671 0.860322 10.5303 0.71967C10.3897 0.579018 10.1989 0.5 10 0.5C9.80109 0.5 9.61032 0.579018 9.46967 0.71967C9.32902 0.860322 9.25 1.05109 9.25 1.25V2H4.75V1.25C4.75 1.05109 4.67098 0.860322 4.53033 0.71967C4.38968 0.579018 4.19891 0.5 4 0.5C3.80109 0.5 3.61032 0.579018 3.46967 0.71967C3.32902 0.860322 3.25 1.05109 3.25 1.25V2H2.5C1.90326 2 1.33097 2.23705 0.90901 2.65901C0.487053 3.08097 0.25 3.65326 0.25 4.25V13.25C0.25 13.8467 0.487053 14.419 0.90901 14.841C1.33097 15.2629 1.90326 15.5 2.5 15.5H11.5C12.0967 15.5 12.669 15.2629 13.091 14.841C13.5129 14.419 13.75 13.8467 13.75 13.25V4.25C13.75 3.65326 13.5129 3.08097 13.091 2.65901C12.669 2.23705 12.0967 2 11.5 2V2ZM2.5 3.5H3.25V4.25C3.25 4.44891 3.32902 4.63968 3.46967 4.78033C3.61032 4.92098 3.80109 5 4 5C4.19891 5 4.38968 4.92098 4.53033 4.78033C4.67098 4.63968 4.75 4.44891 4.75 4.25V3.5H9.25V4.25C9.25 4.44891 9.32902 4.63968 9.46967 4.78033C9.61032 4.92098 9.80109 5 10 5C10.1989 5 10.3897 4.92098 10.5303 4.78033C10.671 4.63968 10.75 4.44891 10.75 4.25V3.5H11.5C11.6989 3.5 11.8897 3.57902 12.0303 3.71967C12.171 3.86032 12.25 4.05109 12.25 4.25V7.25H1.75V4.25C1.75 4.05109 1.82902 3.86032 1.96967 3.71967C2.11032 3.57902 2.30109 3.5 2.5 3.5V3.5ZM11.5 14H2.5C2.30109 14 2.11032 13.921 1.96967 13.7803C1.82902 13.6397 1.75 13.4489 1.75 13.25V8.75H12.25V13.25C12.25 13.4489 12.171 13.6397 12.0303 13.7803C11.8897 13.921 11.6989 14 11.5 14Z" fill="#1D1D1B"/>
</svg>
