<svg width="27" height="24" viewBox="0 0 27 24" fill="none" xmlns="http://www.w3.org/2000/svg">
<path d="M26.1067 5.33338C25.8763 4.93421 25.5464 4.60156 25.1491 4.36788C24.7519 4.1342 24.3008 4.00747 23.84 4.00005H6.77332L5.99999 0.986716C5.92186 0.695834 5.74754 0.439975 5.50543 0.260812C5.26331 0.0816492 4.96767 -0.0102614 4.66666 4.95519e-05H1.99999C1.64637 4.95519e-05 1.30723 0.140525 1.05718 0.390574C0.807132 0.640622 0.666656 0.979761 0.666656 1.33338C0.666656 1.687 0.807132 2.02614 1.05718 2.27619C1.30723 2.52624 1.64637 2.66672 1.99999 2.66672H3.65332L7.33332 16.3467C7.41146 16.6376 7.58578 16.8935 7.82789 17.0726C8.07 17.2518 8.36564 17.3437 8.66666 17.3334H20.6667C20.9129 17.3326 21.1541 17.2637 21.3635 17.1343C21.573 17.0048 21.7425 16.8199 21.8533 16.6L26.2267 7.85338C26.4162 7.45607 26.5045 7.01801 26.4835 6.57829C26.4626 6.13858 26.3331 5.71089 26.1067 5.33338ZM19.84 14.6667H9.67999L7.50666 6.66672H23.84L19.84 14.6667Z" fill="#1D1D1B"/>
<path d="M8 24C9.10457 24 10 23.1046 10 22C10 20.8954 9.10457 20 8 20C6.89543 20 6 20.8954 6 22C6 23.1046 6.89543 24 8 24Z" fill="#1D1D1B"/>
<path d="M21.3333 24C22.4379 24 23.3333 23.1046 23.3333 22C23.3333 20.8954 22.4379 20 21.3333 20C20.2287 20 19.3333 20.8954 19.3333 22C19.3333 23.1046 20.2287 24 21.3333 24Z" fill="#1D1D1B"/>
</svg>
