<svg width="32" height="32" viewBox="0 0 32 32" fill="none" xmlns="http://www.w3.org/2000/svg">
<path d="M16 20.6667C15.8245 20.6677 15.6506 20.6341 15.4881 20.5677C15.3257 20.5014 15.1779 20.4036 15.0533 20.28L9.71998 14.9467C9.59566 14.8224 9.49705 14.6748 9.42977 14.5124C9.36249 14.3499 9.32786 14.1759 9.32786 14C9.32786 13.8242 9.36249 13.6501 9.42977 13.4877C9.49705 13.3253 9.59566 13.1777 9.71998 13.0534C9.8443 12.9291 9.99189 12.8304 10.1543 12.7632C10.3167 12.6959 10.4908 12.6613 10.6666 12.6613C10.8425 12.6613 11.0166 12.6959 11.179 12.7632C11.3414 12.8304 11.489 12.9291 11.6133 13.0534L16 17.4667L20.4 13.2267C20.5226 13.0903 20.6721 12.9807 20.8391 12.9047C21.006 12.8287 21.1868 12.788 21.3702 12.7851C21.5537 12.7822 21.7357 12.8172 21.905 12.8878C22.0742 12.9585 22.2271 13.0633 22.354 13.1958C22.4809 13.3282 22.5792 13.4854 22.6426 13.6575C22.7059 13.8296 22.7331 14.013 22.7224 14.1961C22.7117 14.3792 22.6634 14.5582 22.5803 14.7217C22.4973 14.8853 22.3815 15.03 22.24 15.1467L16.9066 20.2934C16.6628 20.5285 16.3387 20.6619 16 20.6667Z" fill="#0097CC"/>
</svg>
