<svg width="32" height="32" viewBox="0 0 32 32" fill="none" xmlns="http://www.w3.org/2000/svg">
<path d="M26.6667 9.10661C26.6732 8.61142 26.5798 8.12 26.3919 7.66179C26.204 7.20357 25.9256 6.78799 25.5733 6.43994C24.8559 5.75216 23.9005 5.36816 22.9067 5.36816C21.9128 5.36816 20.9574 5.75216 20.24 6.43994L11.44 15.2399H11.1467C9.63658 15.2805 8.19975 15.8994 7.13283 16.9688C6.0659 18.0382 5.45037 19.4764 5.41332 20.9866L5.33332 25.3333C5.32873 25.5132 5.36063 25.6922 5.42708 25.8595C5.49354 26.0268 5.59317 26.1789 5.71998 26.3066C5.97956 26.5405 6.31723 26.669 6.66665 26.6666L11.0133 26.5866C12.5235 26.5496 13.9617 25.934 15.0311 24.8671C16.1006 23.8002 16.7194 22.3633 16.76 20.8533V20.5466L25.5733 11.7466C25.9236 11.4026 26.2009 10.9915 26.3888 10.5379C26.5766 10.0843 26.6711 9.59754 26.6667 9.10661ZM11 23.9199L7.99999 23.9999V21.0266C8.01398 20.1872 8.35729 19.3869 8.95589 18.7983C9.5545 18.2096 10.3605 17.8798 11.2 17.8799C11.581 17.8799 11.9581 17.9558 12.3095 18.1031C12.6608 18.2505 12.9792 18.4665 13.2461 18.7383C13.513 19.0102 13.7231 19.3325 13.8639 19.6865C14.0048 20.0405 14.0737 20.419 14.0667 20.7999C14.047 21.6121 13.7192 22.3864 13.1497 22.9658C12.5803 23.5452 11.8117 23.8863 11 23.9199ZM23.6933 9.85327L15.8667 17.6799C15.6618 17.3751 15.4298 17.0895 15.1733 16.8266C14.9139 16.5663 14.6279 16.3339 14.32 16.1333L22.1467 8.31994C22.355 8.12106 22.632 8.0101 22.92 8.0101C23.208 8.0101 23.485 8.12106 23.6933 8.31994C23.7946 8.42375 23.874 8.5469 23.9267 8.68206C23.9794 8.81722 24.0043 8.96161 24 9.10661C24.0005 9.24511 23.9736 9.38236 23.921 9.51048C23.8684 9.6386 23.791 9.75509 23.6933 9.85327Z" fill="#0097CC"/>
</svg>
