<svg width="32" height="32" viewBox="0 0 32 32" fill="none" xmlns="http://www.w3.org/2000/svg">
<path d="M24 4H8C6.93913 4 5.92172 4.42143 5.17157 5.17157C4.42143 5.92172 4 6.93913 4 8V24C4 25.0609 4.42143 26.0783 5.17157 26.8284C5.92172 27.5786 6.93913 28 8 28H24C25.0609 28 26.0783 27.5786 26.8284 26.8284C27.5786 26.0783 28 25.0609 28 24V8C28 6.93913 27.5786 5.92172 26.8284 5.17157C26.0783 4.42143 25.0609 4 24 4ZM8 6.66667H24C24.3536 6.66667 24.6928 6.80714 24.9428 7.05719C25.1929 7.30724 25.3333 7.64638 25.3333 8V10.6667H6.66667V8C6.66667 7.64638 6.80714 7.30724 7.05719 7.05719C7.30724 6.80714 7.64638 6.66667 8 6.66667ZM6.66667 24V13.3333H14.6667V25.3333H8C7.64638 25.3333 7.30724 25.1929 7.05719 24.9428C6.80714 24.6928 6.66667 24.3536 6.66667 24ZM24 25.3333H17.3333V13.3333H25.3333V24C25.3333 24.3536 25.1929 24.6928 24.9428 24.9428C24.6928 25.1929 24.3536 25.3333 24 25.3333Z" fill="#1D1D1B"/>
</svg>
