<svg width="32" height="32" viewBox="0 0 32 32" fill="none" xmlns="http://www.w3.org/2000/svg">
<path d="M14.8133 30.6667C14.6587 30.6665 14.5053 30.6395 14.36 30.5867C14.0796 30.4841 13.8419 30.2903 13.6847 30.0365C13.5276 29.7826 13.4602 29.4834 13.4933 29.1867L14.52 19.7334H6.66664C6.42442 19.7337 6.18667 19.6681 5.97893 19.5435C5.77119 19.419 5.60131 19.2402 5.48754 19.0263C5.37376 18.8125 5.32039 18.5717 5.33315 18.3298C5.34591 18.0879 5.42433 17.8541 5.55998 17.6534L16.08 1.92005C16.2464 1.67383 16.4902 1.49025 16.7729 1.39846C17.0555 1.30667 17.3607 1.31192 17.64 1.41338C17.9085 1.51307 18.1378 1.69656 18.2938 1.9367C18.4499 2.17684 18.5246 2.46086 18.5066 2.74671L17.48 12.2667H25.3333C25.5755 12.2663 25.8133 12.332 26.021 12.4565C26.2288 12.5811 26.3986 12.7599 26.5124 12.9738C26.6262 13.1876 26.6796 13.4284 26.6668 13.6703C26.654 13.9122 26.5756 14.146 26.44 14.3467L15.92 30.08C15.7977 30.261 15.6328 30.4091 15.4398 30.5114C15.2469 30.6137 15.0317 30.667 14.8133 30.6667ZM9.15998 17.0667H16C16.186 17.0672 16.3699 17.1065 16.5399 17.1823C16.7098 17.2581 16.862 17.3686 16.9866 17.5067C17.1125 17.6467 17.2072 17.8118 17.2647 17.991C17.3221 18.1703 17.341 18.3597 17.32 18.5467L16.72 24.08L22.84 14.9334H16C15.8118 14.9345 15.6256 14.8958 15.4534 14.8198C15.2813 14.7439 15.1272 14.6323 15.0013 14.4925C14.8753 14.3527 14.7804 14.1879 14.7227 14.0088C14.6651 13.8297 14.6459 13.6404 14.6666 13.4534L15.2666 7.92005L9.15998 17.0667Z" fill="#1D1D1B"/>
</svg>
